<svg class="icon" viewBox="0 0 1024 1024" xmlns="http://www.w3.org/2000/svg" width="200" height="200"><defs><style/></defs><path d="M902.947 571.027H570.654v332.346c0 32.387-26.267 58.628-58.655 58.628-32.387 0-58.654-26.241-58.654-58.628V571.027H121.05c-32.414 0-58.654-26.241-58.654-58.628 0-32.375 26.243-58.628 58.654-58.628h332.293V121.425c0-32.375 26.267-58.628 58.654-58.628 32.388 0 58.655 26.254 58.655 58.628v332.347h332.293c32.414 0 58.655 26.252 58.655 58.626-.001 32.387-26.241 58.626-58.655 58.626z" fill="#515151"/></svg>