<?xml version="1.0" standalone="no"?><!DOCTYPE svg PUBLIC "-//W3C//DTD SVG 1.1//EN" "http://www.w3.org/Graphics/SVG/1.1/DTD/svg11.dtd"><svg t="1510024678751" class="icon" style="" viewBox="0 0 1024 1024" version="1.1" xmlns="http://www.w3.org/2000/svg" p-id="2710" xmlns:xlink="http://www.w3.org/1999/xlink" width="200" height="200"><defs><style type="text/css"></style></defs><path d="M582.4 512l396.8-396.8c19.2-19.2 19.2-51.2 0-70.4s-51.2-19.2-70.4 0L512 441.6 115.2 44.8C96 25.6 64 25.6 44.8 44.8 32 64 32 96 51.2 115.2L441.6 512l-396.8 396.8c-19.2 19.2-19.2 51.2 0 70.4 6.4 6.4 19.2 12.8 32 12.8s25.6-6.4 32-12.8L512 576l396.8 396.8c6.4 6.4 19.2 12.8 32 12.8s25.6-6.4 32-12.8c19.2-19.2 19.2-51.2 0-70.4L582.4 512 582.4 512z" p-id="2711" fill="#515151"></path></svg>