<?xml version="1.0" standalone="no"?><!DOCTYPE svg PUBLIC "-//W3C//DTD SVG 1.1//EN" "http://www.w3.org/Graphics/SVG/1.1/DTD/svg11.dtd"><svg t="1510027655548" class="icon" style="" viewBox="0 0 1024 1024" version="1.1" xmlns="http://www.w3.org/2000/svg" p-id="1866" xmlns:xlink="http://www.w3.org/1999/xlink" width="200" height="200"><defs><style type="text/css"></style></defs><path d="M895.936 895.936 831.936 895.936 127.936 895.936C110.272 895.936 94.272 888.768 82.688 877.248 71.104 865.664 63.936 849.664 63.936 831.936L63.936 319.936 63.936 191.936C63.936 156.608 92.608 128 127.936 128L447.936 128C463.104 128 476.48 134.016 487.424 142.848 538.304 176.064 589.12 255.936 639.936 255.936L895.936 255.936C931.328 255.936 959.936 284.608 959.936 319.936L959.936 831.936C959.936 867.264 931.328 895.936 895.936 895.936Z" p-id="1867" fill="#515151"></path></svg>